<svg xmlns="http://www.w3.org/2000/svg" viewBox="0 0 512 512" fill="none">
  <rect width="512" height="512" rx="85" fill="#7c3aed"/>
  <path d="M256 107C176.47 107 112 171.47 112 251s64.47 144 144 144 144-64.47 144-144-64.47-144-144-144zm0 258c-62.86 0-114-51.14-114-114s51.14-114 114-114 114 51.14 114 114-51.14 114-114 114z" fill="white" opacity="0.3"/>
  <circle cx="256" cy="251" r="72" fill="white"/>
  <path d="M256 179c-39.76 0-72 32.24-72 72s32.24 72 72 72 72-32.24 72-72-32.24-72-72-72zm0 114c-23.2 0-42-18.8-42-42s18.8-42 42-42 42 18.8 42 42-18.8 42-42 42z" fill="#7c3aed"/>
  <path d="M235 229h42v62h-42z" fill="#7c3aed"/>
  <circle cx="256" cy="218" r="21" fill="#7c3aed"/>
</svg>
