<svg xmlns="http://www.w3.org/2000/svg" viewBox="0 0 192 192" fill="none">
  <rect width="192" height="192" rx="32" fill="#7c3aed"/>
  <path d="M96 40C65.07 40 40 65.07 40 96s25.07 56 56 56 56-25.07 56-56S126.93 40 96 40zm0 100c-24.26 0-44-19.74-44-44s19.74-44 44-44 44 19.74 44 44-19.74 44-44 44z" fill="white" opacity="0.3"/>
  <circle cx="96" cy="96" r="28" fill="white"/>
  <path d="M96 68c-15.46 0-28 12.54-28 28s12.54 28 28 28 28-12.54 28-28-12.54-28-28-28zm0 44c-8.82 0-16-7.18-16-16s7.18-16 16-16 16 7.18 16 16-7.18 16-16 16z" fill="#7c3aed"/>
  <path d="M88 88h16v24H88z" fill="#7c3aed"/>
  <circle cx="96" cy="84" r="8" fill="#7c3aed"/>
</svg>
